<?xml version="1.0" encoding="utf-8"?>
<svg version="1.1" id="Layer_1" xmlns="http://www.w3.org/2000/svg" xmlns:xlink="http://www.w3.org/1999/xlink" x="0px" y="0px"
	 viewBox="0 0 36 36" style="enable-background:new 0 0 36 36;" xml:space="preserve">
<style type="text/css">
	.st0{fill:#FFFFFF;}
</style>
<g>
	<path d="M18,35C8.6,35,1,27.4,1,18C1,8.6,8.6,1,18,1s17,7.6,17,17C35,27.4,27.4,35,18,35z"/>
</g>
<circle class="st0" cx="18" cy="18" r="2"/>
<rect x="10.5" y="20.5" transform="matrix(0.7071 -0.7071 0.7071 0.7071 -10.9749 16.5601)" class="st0" width="8" height="2"/>
<path class="st0" d="M25,11.8l1,1v10.3l-1,1l-1-1V12.8L25,11.8 M25,8l-1,1v1l-2,2v12l2,2v1l1,1l1-1v-1l2-2V12l-2-2V9L25,8L25,8z"/>
<path class="st0" d="M20,21.4c-0.6,0.3-1.3,0.6-2,0.6c-2.2,0-4-1.8-4-4s1.8-4,4-4c0.7,0,1.4,0.2,2,0.6v-2.2c-0.6-0.3-1.3-0.4-2-0.4
	c-3.3,0-6,2.7-6,6s2.7,6,6,6c0.7,0,1.4-0.1,2-0.3V21.4z"/>
<path class="st0" d="M20.7,25.5C19.8,25.8,18.9,26,18,26c-4.4,0-8-3.6-8-8s3.6-8,8-8c0.9,0,1.8,0.2,2.7,0.5L22.2,9
	c-1.3-0.6-2.7-1-4.2-1C12.5,8,8,12.5,8,18s4.5,10,10,10c1.5,0,2.9-0.3,4.2-0.9L20.7,25.5z"/>
</svg>